<svg width="17" height="17" viewBox="0 0 17 17" fill="none" xmlns="http://www.w3.org/2000/svg">
<path d="M8.24984 11.5832C9.13389 11.5832 9.98174 11.232 10.6069 10.6069C11.232 9.98174 11.5832 9.13389 11.5832 8.24984C11.5832 7.36578 11.232 6.51794 10.6069 5.89281C9.98174 5.26769 9.13389 4.9165 8.24984 4.9165C7.36578 4.9165 6.51794 5.26769 5.89281 5.89281C5.26769 6.51794 4.9165 7.36578 4.9165 8.24984C4.9165 9.13389 5.26769 9.98174 5.89281 10.6069C6.51794 11.232 7.36578 11.5832 8.24984 11.5832Z" stroke="#E6E8F0" stroke-width="1.5" stroke-linecap="round" stroke-linejoin="round"/>
<path d="M0.75 11.5833V4.91667C0.75 3.8116 1.18899 2.75179 1.97039 1.97039C2.75179 1.18899 3.8116 0.75 4.91667 0.75H11.5833C12.6884 0.75 13.7482 1.18899 14.5296 1.97039C15.311 2.75179 15.75 3.8116 15.75 4.91667V11.5833C15.75 12.6884 15.311 13.7482 14.5296 14.5296C13.7482 15.311 12.6884 15.75 11.5833 15.75H4.91667C3.8116 15.75 2.75179 15.311 1.97039 14.5296C1.18899 13.7482 0.75 12.6884 0.75 11.5833Z" stroke="#E6E8F0" stroke-width="1.5"/>
<path d="M12.8335 3.67518L12.8418 3.66602" stroke="#E6E8F0" stroke-width="1.5" stroke-linecap="round" stroke-linejoin="round"/>
</svg>
